.
..............................Site Info...........................

 -   http://www.scenetime.com  *_*   


Scenetime .Always on time . friendly online private torrent community ..

     We care to share . Join us on  http://www.scenetime.com 

    Be the first to get new release at  http://www.scenetime.com

        Seed back for speed


...................................NFO:.................................................Format                           : AVI
Format/Info                      : Audio Video Interleave
File size                        : 1.16 GiB
Duration                         : 1h 32mn
Overall bit rate                 : 1 788 Kbps
Writing application              : VirtualDubMod 1.5.10.3 | www.virtualdub-fr.org || (build 2550/release)
Writing library                  : VirtualDub build 32661/release

Video
ID                               : 0
Format                           : MPEG-4 Visual
Format profile                   : Advanced Simple@L5
Format settings, BVOP            : Yes
Format settings, QPel            : No
Format settings, GMC             : No warppoints
Format settings, Matrix          : Default (H.263)
Muxing mode                      : Packed bitstream
Codec ID                         : XVID
Codec ID/Hint                    : XviD
Duration                         : 1h 32mn
Bit rate                         : 1 645 Kbps
Width                            : 720 pixels
Height                           : 304 pixels
Display aspect ratio             : 2.35:1
Frame rate                       : 23.976 fps
Original frame rate              : 24.000 fps
Color space                      : YUV
Chroma subsampling               : 4:2:0
Bit depth                        : 8 bits
Scan type                        : Progressive
Bits/(Pixel*Frame)               : 0.313
Stream size                      : 1.07 GiB (92%)
Writing library                  : XviD 1.2.1 (UTC 2008-12-04)

Audio
ID                               : 1
Format                           : MPEG Audio
Format version                   : Version 1
Format profile                   : Layer 3
Mode                             : Joint stereo
Mode extension                   : MS Stereo
Codec ID                         : 55
Codec ID/Hint                    : MP3
Duration                         : 1h 32mn
Bit rate mode                    : Variable
Bit rate                         : 128 Kbps
Channel(s)                       : 2 channels
Sampling rate                    : 48.0 KHz
Video delay                      : 504ms
Stream size                      : 86.3 MiB (7%)
Alignment                        : Split accross interleaves
Interleave, duration             : 24 ms (0.58 video frame)
Interleave, preload duration     : 1490 ms
Writing library                  : LAME3.92 
Encoding settings                : -m j -V 4 -q 2 -lowpass 17.5 --abr 128